<?xml version="1.0" encoding="utf-8"?>
<!-- Generator: Adobe Illustrator 17.0.0, SVG Export Plug-In . SVG Version: 6.00 Build 0)  -->
<!DOCTYPE svg PUBLIC "-//W3C//DTD SVG 1.1//EN" "http://www.w3.org/Graphics/SVG/1.1/DTD/svg11.dtd">
<svg version="1.1" id="Layer_1" xmlns="http://www.w3.org/2000/svg" xmlns:xlink="http://www.w3.org/1999/xlink" x="0px" y="0px"
	 width="100px" height="100px" viewBox="0 0 100 100" enable-background="new 0 0 100 100" xml:space="preserve">
<g>
	<path fill="#97C03D" d="M14.21,79.09c0.14,0.19,0.26,0.17,0.37-0.03C14.45,79.01,14.33,79.02,14.21,79.09z M43.01,79.06
		c0.11,0.2,0.23,0.22,0.37,0.03C43.26,79.02,43.14,79.01,43.01,79.06z"/>
	<path fill="#97C03D" d="M59.908,60.566c-0.025,1.79-0.02,3.582-0.084,5.371c-0.062,1.749-0.532,3.284-2.437,3.901
		c-0.261,0.056-0.522,0.112-0.783,0.168c-2.548-0.484-3.481-1.561-3.538-4.172c-0.036-1.649-0.125-3.311,0.025-4.947
		c0.158-1.719-0.61-2.088-2.068-1.823c-0.958-0.002-1.916-0.003-2.874-0.005c-0.118,0.119-0.235,0.237-0.353,0.356
		c-0.019,0.347-0.039,0.693-0.058,1.04c-0.509,1.803-0.244,3.649-0.204,5.466c0.042,1.862-0.612,3.161-2.277,3.959
		c-1.54-0.072-3.213,0.298-4.299-1.29c-0.038-2.921-0.076-5.842-0.114-8.764c0.091-0.529-0.107-0.796-0.666-0.735
		c-0.124-0.037-0.249-0.038-0.373-0.002c-1.191-0.052-2.381-0.104-3.572-0.156c-0.518-0.63-0.865-1.338-0.993-2.148
		c0.164-8.045,0.185-16.091-0.01-24.136c0.255-1.309,1.305-0.876,2.075-0.88c8.686-0.051,17.372-0.069,26.058-0.095
		c2.606-0.379,1.979,1.584,2.149,2.967c-0.001,5.57-0.001,11.141-0.001,16.712c-0.025,1.394-0.134,2.792-0.055,4.179
		c0.096,1.677-0.557,2.806-2.074,3.469c-0.728-0.003-1.46,0.039-2.184-0.019C59.962,58.882,59.706,59.522,59.908,60.566z"/>
	<path fill="#97C03D" d="M40.459,14.992c0.086-0.795,0.38-0.993,0.901-0.274c0.659,0.911,1.394,1.793,1.889,2.79
		c0.472,0.95,0.998,0.989,1.895,0.697c3.044-0.992,6.134-0.996,9.217-0.174c1.22,0.325,2.129,0.23,2.79-1.063
		c0.628-1.227,1.992-1.75,2.982-2.811c0.341,1.056-0.346,1.541-0.719,2.107c-1.716,2.599-1.728,2.586,0.891,4.478
		c2.514,1.816,4.154,4.176,4.861,7.253c0.276,1.2-0.166,1.504-1.104,1.701c-0.361,0.017-0.723,0.034-1.085,0.05
		c-8.626-0.005-17.252-0.01-25.877-0.018c-1.048-0.001-2.283,0.235-2.092-1.502c0.947-1.865,1.894-3.73,2.841-5.594
		c0,0-0.011,0.012-0.01,0.012c0.464-0.001,0.687-0.314,0.87-0.676c0.629-0.573,1.258-1.147,1.887-1.72
		c2.472-1.187,2.539-1.397,1.098-3.503C41.289,16.154,40.871,15.575,40.459,14.992z M57.361,25.043
		c1.293-0.436,1.426-1.361,0.698-2.28c-0.712-0.899-1.644-1.014-2.38,0.126C55.309,24.455,55.863,25.165,57.361,25.043z
		 M44.66,24.975c0.797-0.493,0.999-1.225,0.539-1.98c-0.48-0.787-1.27-1.048-2.185-0.704c-0.779,0.597-1.072,1.348-0.42,2.16
		C43.104,25.086,43.708,25.859,44.66,24.975z"/>
	<path fill="#97C03D" d="M67.834,33.441c1.108-1.521,2.603-2.081,4.353-1.43c1.658,0.616,2.095,2.028,2.073,3.718
		c-0.053,4.129-0.054,8.26-0.002,12.389c0.026,2.071-0.878,3.396-2.798,4.08c-0.513-0.02-1.027-0.041-1.54-0.061
		c-1.835-0.939-2.565-2.364-2.5-4.487c0.128-4.218,0.005-8.445-0.015-12.667C67.549,34.468,67.691,33.955,67.834,33.441z"/>
	<path fill="#97C03D" d="M32.99,50.12c-0.685,0.67-1.369,1.34-2.054,2.01c-1.511-0.116-3.225,0.591-4.355-1.072
		c0.545-0.434,0.16-0.843-0.033-1.258c-0.045-0.378-0.091-0.757-0.136-1.135c0.153-4.557,0.223-9.113-0.038-13.669
		c0.036-0.241,0.071-0.481,0.107-0.722c0.06-0.315,0.119-0.63,0.179-0.946c2.769-2.314,4.436-2.16,6.429,0.592
		c0.018,5.231,0.038,10.463,0.058,15.695C33.093,49.784,33.041,49.952,32.99,50.12z"/>
	<path fill="#97C03D" d="M67.72,78.48c-2.97,0.01-5.47,2.48-5.52,5.43c-0.05,3,2.52,5.72,5.47,5.77c2.82,0.04,5.41-2.6,5.42-5.52
		C73.1,80.95,70.75,78.47,67.72,78.48z M67.64,87.44c-1.65-0.04-3.29-1.69-3.35-3.37c-0.06-1.88,1.44-3.43,3.35-3.45
		c1.92-0.01,3.59,1.5,3.61,3.26C71.27,85.72,69.48,87.49,67.64,87.44z"/>
	<path fill="#97C03D" d="M21.42,80.17c-0.02,3.07-0.08,6.14-0.12,9.21c-1.28,0.74-1.82,0.35-1.79-1.1c0.04-1.93,0.02-3.87,0-5.8
		c0-0.51,0.13-1.09-0.45-1.43c-0.66-0.39-5.4,0.05-6.02,0.55c-1.1,0.89-1.48,2.07-1.2,3.4c0.27,1.25,1.08,2.12,2.38,2.42
		c0.32,0.08,0.65,0.13,0.98,0.22c0.84,0.22,2.56-0.65,2.11,1.28c-0.35,1.49-1.75,0.76-2.69,0.58c-2.96-0.58-4.56-2.43-4.62-5.16
		c-0.05-2.67,1.39-4.47,4.21-5.25c0.14,0.19,0.26,0.17,0.37-0.03c2.14,0,4.28-0.01,6.42-0.02C21.68,79.21,21.42,79.77,21.42,80.17z"
		/>
	<path fill="#97C03D" d="M47.8,84.21c0.03,2.57-1.77,4.64-4.52,5.3c-1.52,0.36-3.05,0.13-4.57,0.17c-0.8,0.02-0.97-0.48-0.97-1.18
		c0-0.77,0.45-0.86,1.03-0.86c1.07,0.01,2.14,0.04,3.2-0.01c2.33-0.11,3.87-1.53,3.82-3.47c-0.06-2.06-1.48-3.19-3.96-3.16
		c-1,0.01-1.99-0.02-2.99,0c-0.74,0.02-1.08-0.24-1.1-1.03c-0.02-0.83,0.36-1.01,1.08-0.99c1.4,0.05,2.8,0.06,4.19,0.08
		c0.11,0.2,0.23,0.22,0.37,0.03C46.13,79.78,47.78,81.69,47.8,84.21z"/>
	<path fill="#97C03D" d="M89.64,87.63c-0.8,0.94-1.79,1.57-3.03,1.77c-1.95,0.37-3.91,0.99-5.79-0.26c-0.25-0.97,0.01-1.53,1.13-1.5
		c1.13,0.03,2.27,0.06,3.4-0.01c2.34-0.15,3.55-1.54,3.52-3.95c-0.02-1.53-1.56-2.65-3.68-2.67c-1.13-0.02-2.27-0.02-3.4-0.01
		c-0.75,0.02-1.06-0.29-1.06-1.07c0-1.04,0.73-0.49,1.11-0.51c1.76-0.12,3.58-0.45,5.29-0.18C90.59,79.8,92.01,84.8,89.64,87.63z"/>
	<path fill="#97C03D" d="M58.8,87.25c0.16,0.64,0.99,1.34-0.03,1.94c-1.15,0.67-1.36-0.38-1.65-1.02c-0.44-0.96-1.26-1.32-2.12-1.67
		c-1.05,0.03-2.09,0.1-3.14,0.09c-1.71-0.01-1.61-0.85-0.85-1.96c0.13-0.04,0.26-0.04,0.38,0.02c1.47-0.02,2.94-0.06,4.4-0.06
		c1.31,0,2.04-0.64,1.98-1.94c-0.05-1.24-0.87-1.67-2.04-1.65c-1.33,0.01-2.66-0.06-4-0.04c-0.73,0.01-1.11-0.21-1.1-1.01
		c0-0.84,0.44-0.99,1.14-0.97c1.4,0.02,2.81-0.09,4.2,0.04c1.39,0.12,2.72,0.57,3.33,2.02c0.61,1.46,0.75,2.92-0.58,4.09
		C57.82,85.93,58.63,86.54,58.8,87.25z"/>
	<path fill="#97C03D" d="M34.77,88.56c0.04,0.73-0.21,1.11-1.01,1.11c-0.96-0.01-0.81-0.68-0.81-1.25c0-1.66,0.02-3.32,0.03-4.98
		c-1.2-2.35-2.48-3.22-4.24-2.74c-1.65,0.45-2.56,1.57-2.55,3.35v4.38c-0.01,1.15-0.42,1.64-1.56,0.96
		c-0.22-2.25-0.23-4.51,0.01-6.76c0.79-2.7,2.65-4.17,5.16-4.06c2.56,0.12,4.38,1.81,4.8,4.44C34.98,84.85,34.67,86.71,34.77,88.56z
		"/>
	<path fill="#97C03D" d="M77.84,88.4c0.02,0.77-0.13,1.31-1.05,1.3c-0.84-0.02-0.93-0.53-0.92-1.21c0.02-2.79,0.01-5.58,0-8.37
		c0-0.66,0.06-1.13,0.93-1.15c0.98-0.02,1.05,0.52,1.04,1.26c-0.02,1.33-0.01,2.66-0.01,3.98C77.83,85.61,77.81,87,77.84,88.4z"/>
	<path fill="#97C03D" d="M43.38,79.09c-0.14,0.19-0.26,0.17-0.37-0.03C43.14,79.01,43.26,79.02,43.38,79.09z"/>
	<path fill="#97C03D" d="M14.58,79.06c-0.11,0.2-0.23,0.22-0.37,0.03C14.33,79.02,14.45,79.01,14.58,79.06z"/>
	<path fill="#97C03D" d="M48.15,59.06c-0.117,0.118-0.235,0.237-0.353,0.355C47.915,59.297,48.033,59.178,48.15,59.06z"/>
	<path fill="#97C03D" d="M26.373,34.997c-0.081-0.006-0.158-0.027-0.232-0.063c0.113-0.221,0.227-0.44,0.34-0.66
		C26.444,34.515,26.409,34.756,26.373,34.997z"/>
</g>
</svg>
