<?xml version="1.0" encoding="utf-8"?>
<!-- Generator: Adobe Illustrator 17.0.0, SVG Export Plug-In . SVG Version: 6.00 Build 0)  -->
<!DOCTYPE svg PUBLIC "-//W3C//DTD SVG 1.1//EN" "http://www.w3.org/Graphics/SVG/1.1/DTD/svg11.dtd">
<svg version="1.1" id="Layer_1" xmlns="http://www.w3.org/2000/svg" xmlns:xlink="http://www.w3.org/1999/xlink" x="0px" y="0px"
	 width="100px" height="100px" viewBox="0 0 100 100" enable-background="new 0 0 100 100" xml:space="preserve">
<g>
	<path fill="#FFFFFF" d="M80.131,37.468c-0.775-0.896-1.459-1.804-2.26-2.592c-3.603-3.546-8.076-5.003-13.01-5.227
		c-2.16-0.098-4.255,0.405-6.294,1.087c-2.015,0.674-4.025,1.365-6.009,2.123c-1.405,0.537-2.755,0.532-4.15,0.008
		c-1.753-0.658-3.528-1.255-5.285-1.902c-3.402-1.254-6.842-1.457-10.328-0.405c-5.532,1.67-9.491,5.197-12.104,10.299
		c-1.772,3.46-2.539,7.171-2.697,11.025c-0.154,3.758,0.257,7.465,1.123,11.119c1.72,7.26,4.835,13.852,9.482,19.709
		c1.503,1.895,3.086,3.704,5.095,5.084c1.896,1.303,3.963,1.882,6.274,1.445c1.643-0.311,3.202-0.865,4.74-1.496
		c2.068-0.848,4.2-1.441,6.444-1.528c1.869-0.072,3.682,0.282,5.441,0.888c1.481,0.51,2.928,1.123,4.42,1.596
		c1.846,0.584,3.727,0.83,5.655,0.314c2.218-0.594,3.982-1.898,5.491-3.544c3.471-3.783,6.276-8.018,8.335-12.727
		c0.604-1.382,1.106-2.809,1.641-4.182c-6.25-3.132-10.066-7.91-10.538-14.969C71.125,46.541,74.095,41.224,80.131,37.468z
		 M65.712,10.669c-0.56,0.077-1.092,0.111-1.605,0.227c-4.527,1.028-8.255,3.297-11.001,7.096c-1.864,2.578-3.061,5.398-3.191,8.613
		c-0.029,0.726-0.004,1.455-0.004,2.185c0.17,0.023,0.26,0.041,0.351,0.047c2.415,0.161,4.679-0.358,6.773-1.563
		c2.819-1.622,4.904-3.97,6.513-6.758C65.292,17.495,66.025,14.239,65.712,10.669z"/>
	<path d="M80.131,37.468c-6.036,3.757-9.007,9.073-8.535,16.125c0.472,7.059,4.288,11.837,10.538,14.969
		c-0.536,1.373-1.037,2.8-1.641,4.182c-2.059,4.71-4.864,8.945-8.335,12.727c-1.51,1.645-3.274,2.95-5.491,3.544
		c-1.927,0.516-3.809,0.27-5.655-0.314c-1.492-0.472-2.939-1.085-4.42-1.596c-1.759-0.606-3.573-0.96-5.441-0.888
		c-2.244,0.086-4.376,0.679-6.444,1.528c-1.538,0.631-3.098,1.185-4.74,1.496c-2.311,0.437-4.377-0.142-6.274-1.445
		c-2.009-1.38-3.591-3.189-5.095-5.084c-4.646-5.858-7.762-12.449-9.482-19.709c-0.866-3.654-1.277-7.361-1.123-11.119
		c0.158-3.854,0.925-7.565,2.697-11.025c2.613-5.101,6.573-8.628,12.104-10.299c3.487-1.053,6.927-0.85,10.328,0.405
		c1.757,0.648,3.532,1.245,5.285,1.902c1.395,0.523,2.745,0.529,4.15-0.008c1.984-0.759,3.994-1.45,6.009-2.123
		c2.039-0.682,4.134-1.185,6.294-1.087c4.934,0.224,9.407,1.681,13.01,5.227C78.673,35.664,79.356,36.572,80.131,37.468z"/>
	<path d="M65.712,10.669c0.313,3.571-0.421,6.826-2.164,9.847c-1.609,2.788-3.694,5.136-6.513,6.758
		c-2.094,1.205-4.358,1.724-6.773,1.563c-0.091-0.006-0.181-0.024-0.351-0.047c0-0.73-0.025-1.459,0.004-2.185
		c0.13-3.215,1.327-6.035,3.191-8.613c2.746-3.799,6.474-6.068,11.001-7.096C64.621,10.78,65.152,10.746,65.712,10.669z"/>
</g>
</svg>
