<?xml version="1.0" encoding="utf-8"?>
<!-- Generator: Adobe Illustrator 17.0.0, SVG Export Plug-In . SVG Version: 6.00 Build 0)  -->
<!DOCTYPE svg PUBLIC "-//W3C//DTD SVG 1.1//EN" "http://www.w3.org/Graphics/SVG/1.1/DTD/svg11.dtd">
<svg version="1.1" id="Layer_1" xmlns="http://www.w3.org/2000/svg" xmlns:xlink="http://www.w3.org/1999/xlink" x="0px" y="0px"
	 width="100px" height="100px" viewBox="0 0 100 100" enable-background="new 0 0 100 100" xml:space="preserve">
<g>
	<path fill="#F86B12" d="M82.055,12.919c1.988,1.979,4.121,3.808,5.711,6.174c2.502,3.721,4.028,7.831,4.756,12.198
		c1.914,11.482,1.596,23.023,0.54,34.558c-0.195,2.134-0.746,4.235-1.133,6.352c-1.391,3.405-2.65,6.874-4.829,9.894
		c-0.04,0.092-0.079,0.183-0.119,0.275c-1.297,1.35-2.593,2.699-3.89,4.049c-0.344,0.241-0.688,0.481-1.032,0.722
		c-0.643,0.395-1.304,0.766-1.927,1.191c-2.452,1.667-5.319,2.417-7.976,3.632c-3.915,0.777-7.85,1.479-11.839,1.649
		c-7.747,0.33-15.492,0.451-23.237-0.247c-5.244-0.473-10.343-1.418-15.075-3.816c-1.496-0.758-2.896-1.707-4.34-2.569
		c-1.573-1.584-3.146-3.167-4.72-4.751c-2.231-3.061-3.58-6.552-4.898-10.058c-1.293-6.511-1.756-13.104-1.957-19.724
		c0-1.647,0-3.293,0-4.94c0.046-0.455,0.122-0.908,0.132-1.364c0.129-5.535,0.5-11.037,1.605-16.488
		c0.348-1.715,1.198-3.258,1.389-4.995c0,0,0.029-0.12,0.028-0.12c1.223-2.221,2.447-4.441,3.67-6.662
		c2.308-2.374,4.538-4.844,7.528-6.414c1.484-0.779,2.992-1.514,4.49-2.268c5.082-1.673,10.321-2.423,15.645-2.694
		c2.298-0.117,4.595-0.247,6.892-0.372c1.647-0.001,3.294-0.002,4.941-0.003c0.557,0.047,1.113,0.124,1.671,0.136
		c5.331,0.115,10.622,0.513,15.873,1.56c1.813,0.361,3.474,1.185,5.304,1.409l0.052,0.066c0,0,0.081-0.022,0.082-0.022
		c0.285,0.35,0.633,0.563,1.104,0.507c0.097,0.02,0.194,0.041,0.291,0.061C78.545,10.869,80.3,11.894,82.055,12.919z M37.67,33.378
		c0-0.032,0-0.064,0-0.096c-4.269,0-8.539,0.038-12.808-0.026c-1.093-0.016-1.411,0.292-1.408,1.38
		c0.032,10.288,0.026,20.576-0.008,30.865c-0.003,1.029,0.371,1.363,1.347,1.345c1.901-0.033,3.804-0.021,5.706,0.019
		c1.04,0.022,1.417-0.344,1.412-1.452c-0.04-7.867,0.011-15.735-0.025-23.602c-0.005-1.146,0.343-1.536,1.488-1.515
		c3.188,0.058,6.379,0.021,9.568,0.029c1.951,0.004,3.905-0.074,5.834,0.356c1.935,0.431,3.454,1.276,3.804,3.445
		c0.233,1.443,0.512,2.877,0.51,4.351c-0.008,5.607,0.027,11.214-0.016,16.821c-0.008,1.099,0.258,1.607,1.448,1.567
		c1.9-0.064,3.804-0.006,5.706-0.007c0.718,0,1.323-0.086,1.31-1.069c-0.084-6.629,0.096-13.26-0.189-19.886
		c-0.091-2.108-0.304-4.202-0.959-6.216c-0.706-2.169-1.924-3.911-4.122-4.857c-1.957-0.843-3.989-1.387-6.099-1.426
		C46.003,33.324,41.836,33.378,37.67,33.378z M76.066,49.962c0-5.136-0.023-10.273,0.02-15.409c0.008-0.993-0.234-1.359-1.291-1.311
		c-1.947,0.087-3.902,0.057-5.851,0c-0.887-0.026-1.132,0.286-1.13,1.152c0.024,10.376,0.031,20.752-0.009,31.128
		c-0.004,1.143,0.434,1.388,1.456,1.35c1.846-0.068,3.698-0.092,5.542-0.008c1.075,0.049,1.287-0.357,1.279-1.339
		C76.04,60.338,76.063,55.15,76.066,49.962z M38.194,56.514c-0.002,0-0.003,0-0.005,0c0,3.033,0.028,6.067-0.017,9.1
		c-0.014,0.932,0.287,1.286,1.234,1.265c2.052-0.047,4.107-0.04,6.16,0.002c0.886,0.018,1.299-0.211,1.293-1.204
		c-0.038-6.067-0.046-12.134-0.006-18.2c0.007-1.079-0.457-1.303-1.386-1.284c-1.953,0.039-3.909,0.07-5.86-0.001
		c-1.176-0.043-1.467,0.411-1.438,1.532C38.244,50.651,38.194,53.583,38.194,56.514z"/>
</g>
</svg>
