<?xml version="1.0" encoding="utf-8"?>
<!-- Generator: Adobe Illustrator 17.0.0, SVG Export Plug-In . SVG Version: 6.00 Build 0)  -->
<!DOCTYPE svg PUBLIC "-//W3C//DTD SVG 1.1//EN" "http://www.w3.org/Graphics/SVG/1.1/DTD/svg11.dtd">
<svg version="1.1" id="Layer_1" xmlns="http://www.w3.org/2000/svg" xmlns:xlink="http://www.w3.org/1999/xlink" x="0px" y="0px"
	 width="100px" height="100px" viewBox="0 0 100 100" enable-background="new 0 0 100 100" xml:space="preserve">
<g>
	<path fill="#2E58A6" d="M26.329,40.049c-0.93,0.03-1.87,0.05-2.8-0.01c-0.71-0.04-0.93,0.2-0.92,0.91
		c0.03,3.66,0.01,7.31,0.02,10.97c0,0.74-0.01,1.47-0.02,2.21c0,0.16,0.05,0.37-0.16,0.44c-0.23,0.08-0.29-0.14-0.37-0.28
		c-0.27-0.49-0.54-0.98-0.81-1.48c-2.18-4-4.37-8-6.52-12.02c-0.32-0.6-0.69-0.76-1.32-0.75c-1.89,0.04-3.79,0.05-5.68,0
		c-0.72-0.01-0.97,0.16-0.96,0.93c0.04,4.18,0.02,8.35,0.02,12.53c0,2.25,0.02,4.51-0.01,6.77c-0.01,0.66,0.21,0.86,0.85,0.83
		c0.83-0.05,1.67-0.02,2.51-0.02c1.06,0,1.06,0,1.06-1.03v-12.74c0-0.4-0.04-0.82,0.21-1.2c0.29,0.11,0.36,0.37,0.47,0.57
		c2.51,4.61,5.04,9.21,7.53,13.82c0.25,0.47,0.55,0.6,1.04,0.59c1.91-0.02,3.83-0.03,5.74,0.01c0.65,0.01,0.86-0.19,0.86-0.83
		c-0.01-6.51-0.01-13.02,0-19.52C27.069,40.179,26.849,40.039,26.329,40.049z M10.869,46.919c0.02,0.01,0.05,0.02,0.07,0.02v2h-0.07
		V46.919z M10.949,58.369h-0.07v-2c0.02-0.01,0.05-0.02,0.07-0.03V58.369z"/>
	<path fill="#2E58A6" d="M10.939,46.939v2h-0.07v-2.02C10.889,46.929,10.919,46.939,10.939,46.939z"/>
	<path fill="#2E58A6" d="M10.949,56.339v2.03h-0.07v-2C10.899,56.359,10.929,56.349,10.949,56.339z"/>
	<path fill="#2E58A6" d="M67.539,60.339c0.13,0.17,0.34,0.32,0.23,0.58c-0.12,0.26-0.38,0.16-0.59,0.16
		c-1.64,0.01-3.28-0.01-4.91,0.01c-0.47,0.01-0.76-0.14-1.05-0.52c-2.31-3.11-4.64-6.2-6.97-9.28c-0.13-0.18-0.2-0.54-0.52-0.4
		c-0.22,0.09-0.12,0.39-0.12,0.6c-0.01,2.9-0.02,5.79,0.01,8.69c0.01,0.7-0.19,0.96-0.91,0.92c-0.96-0.06-1.92-0.06-2.87,0
		c-0.73,0.05-0.86-0.27-0.86-0.9c0.02-3.19,0.01-6.38,0.01-9.57v-9.43c0-1.14,0.01-1.14,1.11-1.14c0.93,0,1.87,0.02,2.8-0.01
		c0.54-0.02,0.72,0.17,0.71,0.72c-0.02,2.55-0.01,5.1,0,7.66c0,0.25-0.13,0.61,0.17,0.73c0.35,0.13,0.48-0.24,0.64-0.46
		c2.08-2.74,4.16-5.46,6.21-8.21c0.26-0.34,0.53-0.44,0.93-0.44c1.52,0.02,3.04,0.01,4.56,0.01c0.23,0,0.56-0.11,0.67,0.15
		c0.1,0.25-0.19,0.43-0.33,0.61c-2.28,2.82-4.55,5.65-6.86,8.44c-0.4,0.49-0.36,0.8,0.01,1.25
		C62.259,53.779,64.889,57.069,67.539,60.339z"/>
	<path fill="#2E58A6" d="M73.259,40.929c-0.04,3.19-0.01,6.38-0.01,9.58c0,3.24-0.02,6.48,0.01,9.72c0.01,0.66-0.17,0.92-0.87,0.87
		c-1-0.06-2.01-0.04-3.02-0.01c-0.52,0.02-0.7-0.18-0.69-0.68c0.01-1.6,0-3.19,0.01-4.79c0-4.88,0.02-9.77-0.02-14.66
		c-0.01-0.78,0.23-0.96,0.96-0.92c0.9,0.06,1.81,0.06,2.72,0C73.039,39.999,73.269,40.199,73.259,40.929z"/>
	<path fill="#2E58A6" d="M95.119,60.369c-0.18-0.39-0.4-0.77-0.55-1.18c-0.75-2.1-1.45-4.23-2.23-6.33
		c-1.53-4.08-3.11-8.14-4.63-12.23c-0.18-0.47-0.4-0.58-0.84-0.58c-1.48,0.02-2.95,0.03-4.42,0c-0.48-0.02-0.72,0.15-0.87,0.58
		c-0.47,1.32-0.97,2.63-1.45,3.94c-0.64,1.72-1.26,3.45-1.91,5.16c-1.31,3.49-2.62,6.98-3.96,10.46c-0.24,0.61-0.08,0.79,0.54,0.78
		c1.16-0.02,2.31-0.03,3.46,0c0.52,0.02,0.76-0.19,0.91-0.65c0.27-0.81,0.58-1.61,0.86-2.43c0.14-0.41,0.37-0.62,0.85-0.62
		c2.41,0.02,4.82,0.02,7.22,0c0.51,0,0.76,0.2,0.93,0.65c0.23,0.61,0.34,1.27,0.73,1.83l0.01,0.01c0.19,1.21,0.25,1.26,1.41,1.26
		c1.16,0,2.31-0.02,3.46,0C95.139,61.019,95.349,60.869,95.119,60.369z M81.999,52.269c0.79-2.11,1.56-4.22,2.35-6.33
		c0.03-0.08,0.12-0.14,0.26-0.29c0.63,1.7,1.23,3.32,1.83,4.93c0.2,0.56,0.4,1.11,0.61,1.66c0.13,0.36,0.04,0.54-0.39,0.54
		c-1.42-0.02-2.84-0.01-4.26,0C82.019,52.779,81.849,52.679,81.999,52.269z"/>
	<path fill="#2E58A6" d="M47.399,45.889c0-0.62-0.06-1.23-0.12-1.84c-0.26-2.4-1.74-4.47-4.84-4.33c-1.47,0.07-2.94,0.02-4.41,0.02
		v0.03c-1.82,0-3.64-0.03-5.45,0.02c-0.95,0.02-1.78,0.46-2.46,1.14c-1.17,1.16-1.42,2.67-1.46,4.2c-0.07,2.38-0.05,4.76-0.03,7.14
		c0.01,1.64-0.11,3.29,0.16,4.92c0.26,1.55,0.89,2.85,2.35,3.61c0.97,0.51,2.04,0.51,3.08,0.53c2.6,0.03,5.2,0.04,7.81,0
		c0.96-0.02,1.95-0.04,2.86-0.52c1.62-0.84,2.25-2.28,2.39-3.96C47.579,53.199,47.389,49.539,47.399,45.889z M34.219,55.959
		c-1.04,0.01-1.53-0.46-1.54-1.55c-0.02-1.32-0.01-2.65-0.01-3.97c0.01,0,0.01,0,0.01,0v-3.83c0-1.15,0.75-1.72,1.89-1.68
		c2.15,0.08,4.32,0.05,6.47,0.06c0.32,0,0.64-0.01,0.96,0.04c0.99,0.16,1.41,0.79,1.41,1.81c-0.02,2.5-0.16,5,0.07,7.5
		c0.08,0.82-0.68,1.56-1.53,1.57C39.379,55.919,36.799,55.939,34.219,55.959z"/>
</g>
</svg>
