<?xml version="1.0" encoding="utf-8"?>
<!-- Generator: Adobe Illustrator 17.0.0, SVG Export Plug-In . SVG Version: 6.00 Build 0)  -->
<!DOCTYPE svg PUBLIC "-//W3C//DTD SVG 1.1//EN" "http://www.w3.org/Graphics/SVG/1.1/DTD/svg11.dtd">
<svg version="1.1" id="Layer_1" xmlns="http://www.w3.org/2000/svg" xmlns:xlink="http://www.w3.org/1999/xlink" x="0px" y="0px"
	 width="100px" height="100px" viewBox="0 0 100 100" enable-background="new 0 0 100 100" xml:space="preserve">
<rect y="71.13" fill="#188754" width="17.359" height="28.87"/>
<rect x="27.574" y="50.788" fill="#188754" width="17.359" height="49.212"/>
<g>
	<path fill="#188754" d="M63.919,20.94c-2.535,0-4.722-0.921-6.562-2.763c-1.84-1.843-2.76-4.423-2.76-7.739
		c0-2.808,0.879-5.227,2.637-7.255c1.757-2.025,3.925-3.039,6.501-3.039c2.576,0,4.773,1.002,6.592,3.006
		c1.819,2.003,2.729,4.434,2.729,7.289c0,3.271-0.911,5.839-2.729,7.704C68.507,20.007,66.372,20.94,63.919,20.94z"/>
	<rect x="55.147" y="23.047" fill="#188754" width="17.359" height="76.953"/>
</g>
<rect x="82.721" y="0.143" fill="#188754" width="17.359" height="99.857"/>
</svg>
