<?xml version="1.0" encoding="utf-8"?>
<!-- Generator: Adobe Illustrator 17.0.0, SVG Export Plug-In . SVG Version: 6.00 Build 0)  -->
<!DOCTYPE svg PUBLIC "-//W3C//DTD SVG 1.1//EN" "http://www.w3.org/Graphics/SVG/1.1/DTD/svg11.dtd">
<svg version="1.1" id="Layer_1" xmlns="http://www.w3.org/2000/svg" xmlns:xlink="http://www.w3.org/1999/xlink" x="0px" y="0px"
	 width="500px" height="150px" viewBox="0 0 500 150" enable-background="new 0 0 500 150" xml:space="preserve">
<g>
	<path fill="#198754" d="M43.801,86.92H27.914v26.851c0,3.84-0.818,6.752-2.453,8.735s-3.7,2.976-6.192,2.976
		c-2.61,0-4.712-0.982-6.309-2.943c-1.597-1.963-2.395-4.841-2.395-8.638V40.787c0-4.227,0.876-7.247,2.629-9.058
		c1.753-1.812,4.536-2.717,8.352-2.717H43.8c6.58,0,11.643,0.561,15.186,1.682c3.505,1.079,6.532,2.87,9.083,5.37
		c2.55,2.503,4.488,5.565,5.812,9.188c1.323,3.623,1.986,7.699,1.986,12.229c0,9.662-2.687,16.984-8.061,21.966
		C62.435,84.429,54.432,86.92,43.801,86.92z M39.596,43.44H27.914v28.986h11.682c4.088,0,7.506-0.475,10.251-1.424
		c2.745-0.948,4.838-2.501,6.279-4.658c1.44-2.157,2.161-4.982,2.161-8.476c0-4.184-1.11-7.591-3.329-10.223
		C52.466,44.842,47.345,43.44,39.596,43.44z"/>
	<path fill="#198754" d="M65.791,125.483c-2.415,0-4.498-0.878-6.25-2.632c-1.753-1.755-2.629-4.212-2.629-7.371
		c0-2.675,0.837-4.979,2.512-6.91c1.674-1.929,3.739-2.895,6.192-2.895c2.453,0,4.546,0.954,6.279,2.863
		c1.733,1.908,2.599,4.223,2.599,6.942c0,3.115-0.867,5.561-2.599,7.337C70.161,124.594,68.127,125.483,65.791,125.483z"/>
	<path fill="#198754" d="M142.147,43.716H103.07v23.796h35.981c2.647,0,4.623,0.673,5.929,2.017
		c1.304,1.345,1.957,3.117,1.957,5.321s-0.642,3.999-1.928,5.387c-1.285,1.387-3.271,2.082-5.958,2.082H103.07v27.564h40.42
		c2.726,0,4.78,0.716,6.163,2.148c1.382,1.433,2.074,3.338,2.074,5.717c0,2.292-0.691,4.154-2.074,5.586
		c-1.383,1.433-3.437,2.148-6.163,2.148H96.353c-3.777,0-6.494-0.946-8.149-2.842c-1.655-1.895-2.482-4.958-2.482-9.188V40.608
		c0-2.819,0.37-5.123,1.11-6.908c0.74-1.785,1.898-3.084,3.476-3.9c1.577-0.815,3.592-1.223,6.045-1.223h45.794
		c2.764,0,4.819,0.694,6.163,2.082c1.343,1.388,2.015,3.206,2.015,5.454c0,2.292-0.671,4.131-2.015,5.52
		C146.966,43.022,144.912,43.716,142.147,43.716z"/>
	<path fill="#198754" d="M165.504,125.483c-2.415,0-4.498-0.878-6.25-2.632c-1.753-1.755-2.629-4.212-2.629-7.371
		c0-2.675,0.837-4.979,2.512-6.91c1.674-1.929,3.739-2.895,6.192-2.895s4.546,0.954,6.279,2.863
		c1.733,1.908,2.599,4.223,2.599,6.942c0,3.115-0.867,5.561-2.599,7.337C169.874,124.594,167.84,125.483,165.504,125.483z"/>
	<path fill="#198754" d="M452.215,49.285c-2.415,0-4.498-0.878-6.25-2.632c-1.753-1.755-2.629-4.212-2.629-7.371
		c0-2.675,0.837-4.979,2.512-6.91c1.674-1.929,3.739-2.895,6.192-2.895c2.453,0,4.546,0.954,6.279,2.863
		c1.733,1.908,2.599,4.223,2.599,6.942c0,3.115-0.867,5.561-2.599,7.337C456.586,48.396,454.551,49.285,452.215,49.285z"/>
	<path fill="#198754" d="M223.423,125.483h-26.168c-3.778,0-6.475-0.954-8.09-2.863c-1.616-1.908-2.424-4.945-2.424-9.114V40.987
		c0-4.255,0.827-7.315,2.482-9.18c1.654-1.864,4.332-2.797,8.032-2.797h27.744c4.09,0,7.634,0.286,10.632,0.856
		c2.999,0.571,5.684,1.668,8.062,3.29c2.024,1.36,3.816,3.083,5.374,5.166c1.556,2.084,2.745,4.387,3.563,6.91
		c0.817,2.523,1.226,5.188,1.226,7.996c0,9.652-4.283,16.714-12.849,21.189c11.254,4.036,16.881,11.889,16.881,23.558
		c0,5.396-1.226,10.255-3.68,14.576c-2.454,4.321-5.763,7.514-9.93,9.574c-2.609,1.229-5.607,2.097-8.996,2.6
		C231.892,125.231,227.94,125.483,223.423,125.483z M204.089,43.686v24.94h15.889c4.322,0,7.661-0.461,10.017-1.382
		c2.356-0.92,4.156-2.676,5.403-5.264c0.973-1.843,1.46-3.904,1.46-6.187c0-4.869-1.539-8.104-4.614-9.705
		c-3.077-1.601-7.77-2.402-14.078-2.402L204.089,43.686L204.089,43.686z M222.139,82.643h-18.05v28.164h18.633
		c11.719,0,17.583-4.759,17.583-14.28c0-4.869-1.519-8.4-4.557-10.595C232.711,83.74,228.175,82.643,222.139,82.643z"/>
	<path fill="#198754" d="M323.132,113.273l-4.088-11.761h-34.813l-4.089,12.017c-1.597,4.688-2.96,7.852-4.089,9.493
		c-1.13,1.639-2.979,2.461-5.549,2.461c-2.181,0-4.109-0.874-5.782-2.62c-1.675-1.746-2.512-3.728-2.512-5.945
		c0-1.278,0.195-2.598,0.584-3.962c0.388-1.364,1.032-3.26,1.928-5.689l21.904-60.852c0.623-1.747,1.372-3.845,2.249-6.297
		c0.876-2.45,1.81-4.484,2.804-6.104c0.993-1.619,2.297-2.93,3.913-3.932c1.615-1.001,3.611-1.502,5.986-1.502
		c2.415,0,4.429,0.501,6.046,1.502c1.615,1.002,2.921,2.291,3.913,3.867c0.993,1.578,1.829,3.271,2.511,5.082
		c0.681,1.812,1.548,4.23,2.599,7.255l22.372,60.469c1.753,4.603,2.628,7.948,2.628,10.037c0,2.173-0.828,4.165-2.482,5.976
		c-1.655,1.811-3.651,2.717-5.987,2.717c-1.363,0-2.531-0.266-3.504-0.799c-0.974-0.533-1.792-1.257-2.454-2.173
		c-0.662-0.916-1.372-2.322-2.132-4.219C324.329,116.396,323.676,114.722,323.132,113.273z M288.785,87.257h25.584l-12.909-38.672
		L288.785,87.257z"/>
	<g>
		<path fill="#198754" d="M400.302,44.863h-22.139v68.908c0,3.969-0.933,6.914-2.801,8.833c-1.868,1.919-4.282,2.879-7.243,2.879
			c-3.006,0-5.455-0.971-7.346-2.912c-1.891-1.941-2.836-4.873-2.836-8.8V44.863h-22.139c-3.462,0-6.036-0.722-7.721-2.168
			c-1.686-1.445-2.529-3.353-2.529-5.726c0-2.459,0.876-4.4,2.631-5.824c1.752-1.423,4.293-2.135,7.618-2.135h64.505
			c3.507,0,6.116,0.734,7.824,2.2c1.708,1.467,2.563,3.387,2.563,5.759c0,2.372-0.867,4.281-2.598,5.726
			C406.361,44.141,403.764,44.863,400.302,44.863z"/>
	</g>
	<g>
		<rect x="394.156" y="97.087" fill="#198754" width="16.533" height="27.497"/>
		<rect x="419.008" y="77.713" fill="#198754" width="16.533" height="46.871"/>
		<rect x="443.861" y="51.291" fill="#198754" width="16.533" height="73.293"/>
		<rect x="468.713" y="29.477" fill="#198754" width="16.533" height="95.107"/>
	</g>
</g>
</svg>
