<?xml version="1.0" encoding="utf-8"?>
<!-- Generator: Adobe Illustrator 17.0.0, SVG Export Plug-In . SVG Version: 6.00 Build 0)  -->
<!DOCTYPE svg PUBLIC "-//W3C//DTD SVG 1.1//EN" "http://www.w3.org/Graphics/SVG/1.1/DTD/svg11.dtd">
<svg version="1.1" id="Layer_1" xmlns="http://www.w3.org/2000/svg" xmlns:xlink="http://www.w3.org/1999/xlink" x="0px" y="0px"
	 width="100px" height="100px" viewBox="0 0 100 100" enable-background="new 0 0 100 100" xml:space="preserve">
<rect y="71.13" fill="#188754" width="17.359" height="28.87"/>
<rect x="27.574" y="50.788" fill="#188754" width="17.359" height="49.212"/>
<g>
	<path fill="#188754" d="M63.919,35.276c-2.535,0-4.722-0.754-6.562-2.262c-1.84-1.509-2.76-3.621-2.76-6.336
		c0-2.299,0.879-4.28,2.637-5.939c1.757-1.658,3.925-2.488,6.501-2.488c2.576,0,4.773,0.82,6.592,2.461
		c1.819,1.64,2.729,3.63,2.729,5.967c0,2.678-0.911,4.78-2.729,6.307C68.507,34.512,66.372,35.276,63.919,35.276z"/>
	<rect x="55.147" y="37" fill="#188754" width="17.359" height="63"/>
</g>
<rect x="82.721" y="2.893" fill="#188754" width="17.359" height="97.107"/>
</svg>
