<?xml version="1.0" encoding="utf-8"?>
<!-- Generator: Adobe Illustrator 17.0.0, SVG Export Plug-In . SVG Version: 6.00 Build 0)  -->
<!DOCTYPE svg PUBLIC "-//W3C//DTD SVG 1.1//EN" "http://www.w3.org/Graphics/SVG/1.1/DTD/svg11.dtd">
<svg version="1.1" id="Layer_1" xmlns="http://www.w3.org/2000/svg" xmlns:xlink="http://www.w3.org/1999/xlink" x="0px" y="0px"
	 width="300px" height="100px" viewBox="0 0 300 100" enable-background="new 0 0 300 100" xml:space="preserve">
<path fill="#F99010" d="M15.99,32.233v12.652H55.16c3.828,0,7.096,1.354,9.804,4.062c2.708,2.707,4.062,5.976,4.062,9.804v12.653
	c0,3.828-1.355,7.095-4.062,9.803c-2.708,2.708-5.975,4.062-9.804,4.062H2.077c0-3.828,1.354-7.097,4.062-9.805
	s5.992-4.061,9.851-4.061H55.16V58.751H15.99c-3.859,0-7.143-1.353-9.851-4.061c-2.708-2.709-4.062-5.977-4.062-9.805V32.233
	c0-3.828,1.354-7.103,4.062-9.827s5.992-4.086,9.851-4.086h53.037c0,3.86-1.355,7.143-4.062,9.851
	c-2.708,2.708-5.975,4.062-9.804,4.062H15.99z"/>
<path fill="#F99010" d="M90.736,32.186v39.171h39.217V32.186h-11.205c0-3.828,1.355-7.096,4.062-9.804
	c2.708-2.708,5.975-4.062,9.804-4.062h11.205v53.037c0,3.828-1.355,7.104-4.062,9.827c-2.708,2.724-5.975,4.086-9.804,4.086H90.736
	c-3.828,0-7.097-1.362-9.805-4.086c-2.708-2.722-4.062-5.999-4.062-9.827V32.186c0-3.828,1.354-7.096,4.062-9.804
	c2.708-2.708,5.976-4.062,9.805-4.062h28.478c0,3.828-1.354,7.097-4.062,9.805s-5.976,4.062-9.804,4.062H90.736z"/>
<path fill="#F99010" d="M166.834,32.186v39.218c0,3.828-1.353,7.095-4.062,9.803c-2.708,2.708-5.975,4.062-9.804,4.062V32.186
	c0-3.828,1.354-7.096,4.062-9.804c2.708-2.708,5.976-4.062,9.804-4.062h53.084c0,3.828-1.355,7.097-4.062,9.805
	c-2.708,2.708-5.975,4.062-9.805,4.062H166.834z M169.823,59.965h13.772c3.829,0,7.097-1.353,9.805-4.061
	c2.708-2.709,4.062-5.977,4.062-9.805h-27.638V59.965z"/>
<path fill="#F99010" d="M211.705,79.023c-1.666,3.043-4.276,4.99-7.83,5.842s-7.011,0.358-10.368-1.481l23.09-42.159
	c1.68-3.068,4.297-5.028,7.852-5.879c3.554-0.852,7.009-0.359,10.367,1.48L211.705,79.023z"/>
<path fill="#F99010" d="M274.351,25.428c4.108,7.345,8.217,14.675,12.325,21.989c4.108,7.345,8.217,14.691,12.325,22.036
	c-5.945,2.895-10.753,2.538-14.425-1.073c-3.674-3.611-6.676-7.828-9.01-12.653c-0.157-0.217-0.296-0.45-0.421-0.699
	c-2.117-3.798-4.248-7.611-6.396-11.439c-2.148-3.828-4.279-7.64-6.396-11.438c-2.738,4.981-5.478,9.976-8.217,14.987
	c-2.738,4.981-5.478,9.975-8.217,14.986c-0.685,1.246-1.4,2.615-2.148,4.109c-1.68,3.548-3.665,7.065-5.952,10.551
	c-2.288,3.486-5.003,5.999-8.148,7.54c-3.143,1.541-6.878,1.19-11.205-1.05c4.545-8.28,9.088-16.558,13.632-24.838
	c4.514-8.278,9.042-16.573,13.587-24.884c0.466-0.808,0.918-1.649,1.353-2.521c1.183-2.428,2.545-4.731,4.086-6.91
	c1.541-2.178,3.555-3.797,6.046-4.855c3.298-1.214,6.544-1.252,9.734-0.117C270.093,20.286,272.575,22.378,274.351,25.428z
	 M274.396,59.79H252.5c0-3.797,1.346-7.05,4.039-9.758c2.692-2.708,5.953-4.062,9.781-4.062h0.374L274.396,59.79z"/>
<circle fill="#F99010" cx="232.875" cy="26.737" r="7.72"/>
</svg>
